<svg width="48" height="48" viewBox="0 0 48 48" fill="none" xmlns="http://www.w3.org/2000/svg">
<path d="M37.4051 39.3778C28.2537 39.8226 19.091 39.8226 9.93958 39.3778" stroke="#595959" stroke-miterlimit="10" stroke-linecap="round" stroke-linejoin="round"/>
<path d="M39.2828 34.7274C28.8809 35.3024 18.4624 35.3024 8.06055 34.7274" stroke="#595959" stroke-miterlimit="10" stroke-linecap="round" stroke-linejoin="round"/>
<path d="M40.2878 30.1169C29.2172 30.7683 18.1266 30.7684 7.05591 30.1169" stroke="#595959" stroke-miterlimit="10" stroke-linecap="round" stroke-linejoin="round"/>
<path d="M12.9551 28.6227C13.3633 33.568 13.7716 38.5132 14.1798 43.4585" stroke="#595959" stroke-miterlimit="10" stroke-linecap="round" stroke-linejoin="round"/>
<path d="M18.3264 28.7876C18.5296 33.7148 18.7328 38.6421 18.9359 43.5693" stroke="#595959" stroke-miterlimit="10" stroke-linecap="round" stroke-linejoin="round"/>
<path d="M23.6721 28.8479V43.5693" stroke="#595959" stroke-miterlimit="10" stroke-linecap="round" stroke-linejoin="round"/>
<path d="M29.0169 28.8021C28.7971 34.132 28.6515 37.6602 28.408 43.5693" stroke="#595959" stroke-miterlimit="10" stroke-linecap="round" stroke-linejoin="round"/>
<path d="M34.3851 28.6514C33.9453 33.9783 33.6493 37.5637 33.1627 43.458" stroke="#595959" stroke-miterlimit="10" stroke-linecap="round" stroke-linejoin="round"/>
<path d="M41.9053 25.9409C29.9934 26.726 18.0558 26.7264 6.09551 25.9363C5.15106 25.8739 4.44467 25.0432 4.53515 24.1009C4.62186 23.1983 5.40991 22.5277 6.31483 22.5876C18.0976 23.3658 29.9034 23.3664 41.6862 22.5894C42.6024 22.529 43.3965 23.2165 43.4684 24.1319L43.4686 24.1346C43.5417 25.0669 42.8385 25.8794 41.9053 25.9409Z" stroke="#595959" stroke-miterlimit="10" stroke-linecap="round" stroke-linejoin="round"/>
<path d="M6.82898 28.2953C7.21289 32.0835 8.30979 37.5225 11.3718 41.6433C12.2725 42.8555 13.6946 43.5693 15.2048 43.5693H32.1399C33.6501 43.5693 35.0723 42.8555 35.973 41.6433C39.0195 37.5433 40.1208 32.1378 40.51 28.3521" stroke="#595959" stroke-miterlimit="10" stroke-linecap="round" stroke-linejoin="round"/>
<path d="M39.8594 22.7036V20.6186C39.8594 11.6926 32.5974 4.43063 23.6714 4.43063C14.7453 4.43063 7.48328 11.6926 7.48328 20.6186V22.6625" stroke="#595959" stroke-miterlimit="10" stroke-linecap="round" stroke-linejoin="round"/>
<path d="M9.99939 22.805V20.6182C9.99939 13.0794 16.1328 6.94599 23.6716 6.94599C31.2105 6.94599 37.3438 13.0794 37.3438 20.6182V22.8403" stroke="#595959" stroke-miterlimit="10" stroke-linecap="round" stroke-linejoin="round"/>
</svg>
